<svg xmlns="http://www.w3.org/2000/svg" viewBox="0 0 100 100" role="img" aria-label="Swatch">
  <rect width="100" height="100" rx="22" fill="#F3F0E9"/>
  <rect x="1" y="1" width="98" height="98" rx="21" fill="none" stroke="#16151B" stroke-opacity="0.12" stroke-width="1"/>
  <g transform="translate(13.03,75.25) scale(0.0754,-0.0754)" fill="#16151B">
    <path d="M355 -10Q25 -10 25 233V239H213V218Q213 183 238.0 172.0Q263 161 355 161Q437 161 459.0 168.5Q481 176 481 200Q481 218 467.0 227.0Q453 236 413 241L203 269Q15 295 15 461Q15 552 93.5 616.0Q172 680 340 680Q496 680 575.5 616.0Q655 552 655 437V431H467V446Q467 484 439.0 497.0Q411 510 320 510Q251 510 227.0 500.5Q203 491 203 468Q203 452 213.5 444.0Q224 436 251 432L461 401Q669 371 669 207Q669 113 591.5 51.5Q514 -10 355 -10Z"/>
  </g>
  <g transform="translate(65.19,75.25) scale(0.0754,-0.0754)" fill="#A8A299">
    <path d="M274 0H30V192H274Z"/>
  </g>
</svg>
